HIERARCHY
ROOT SpineBase
{
  OFFSET 0.000000 0.000000 0.000000
  CHANNELS 6 Xposition Yposition Zposition Zrotation Xrotation Yrotation
  JOINT SpineMid
  {
    OFFSET -0.000000 26.837956 0.000000
    CHANNELS 3 Zrotation Xrotation Yrotation
    JOINT SpineShoulder
    {
      OFFSET 0.098958 19.934714 -0.678386
      CHANNELS 3 Zrotation Xrotation Yrotation
      JOINT Neck
      {
        OFFSET 0.036048 6.608930 -0.483456
        CHANNELS 3 Zrotation Xrotation Yrotation
        JOINT Head
        {
          OFFSET 3.120759 12.267165 -0.318763
          CHANNELS 3 Zrotation Xrotation Yrotation
          End Site
          {
            OFFSET 0 0 0
          }
        }
      }
      JOINT ShoulderLeft
      {
        OFFSET -12.069714 -2.398143 -7.892623
        CHANNELS 3 Zrotation Xrotation Yrotation
        JOINT ElbowLeft
        {
          OFFSET -4.934062 -20.768700 -1.729371
          CHANNELS 3 Zrotation Xrotation Yrotation
          JOINT WristLeft
          {
            OFFSET 0.410516 -18.801963 -5.313138
            CHANNELS 3 Zrotation Xrotation Yrotation
            JOINT HandLeft
            {
              OFFSET 2.356062 -7.487968 -2.258538
              CHANNELS 3 Zrotation Xrotation Yrotation
              JOINT HandTipLeft
              {
                OFFSET 0.512078 -6.737514 -1.342422
                CHANNELS 3 Zrotation Xrotation Yrotation
                End Site
                {
                  OFFSET 0 0 0
                }
              }
              JOINT ThumbLeft
              {
                OFFSET -2.075075 -0.686669 -3.607988
                CHANNELS 3 Zrotation Xrotation Yrotation
                End Site
                {
                  OFFSET 0 0 0
                }
              }
            }
          }
        }
      }
      JOINT ShoulderRight
      {
        OFFSET 12.311901 -3.083293 5.034925
        CHANNELS 3 Zrotation Xrotation Yrotation
        JOINT ElbowRight
        {
          OFFSET 2.220752 -24.524633 1.104816
          CHANNELS 3 Zrotation Xrotation Yrotation
          JOINT WristRight
          {
            OFFSET 1.748850 -23.072139 -1.832233
            CHANNELS 3 Zrotation Xrotation Yrotation
            JOINT HandRight
            {
              OFFSET -1.884070 -3.221420 -1.304041
              CHANNELS 3 Zrotation Xrotation Yrotation
              JOINT HandTipRight
              {
                OFFSET 0.475454 -4.745435 -1.234374
                CHANNELS 3 Zrotation Xrotation Yrotation
                End Site
                {
                  OFFSET 0 0 0
                }
              }
              JOINT ThumbRight
              {
                OFFSET -2.377047 0.685825 -2.469284
                CHANNELS 3 Zrotation Xrotation Yrotation
                End Site
                {
                  OFFSET 0 0 0
                }
              }
            }
          }
        }
      }
    }
  }
  JOINT HipLeft
  {
    OFFSET -5.493925 0.940013 -5.371006
    CHANNELS 3 Zrotation Xrotation Yrotation
    JOINT KneeLeft
    {
      OFFSET -7.475055 -28.249537 1.370455
      CHANNELS 3 Zrotation Xrotation Yrotation
      JOINT AnkleLeft
      {
        OFFSET -4.319190 -33.937654 11.126067
        CHANNELS 3 Zrotation Xrotation Yrotation
        JOINT FootLeft
        {
          OFFSET 3.432170 -6.891004 -0.648748
          CHANNELS 3 Zrotation Xrotation Yrotation
          End Site
          {
            OFFSET 0 0 0
          }
        }
      }
    }
  }
  JOINT HipRight
  {
    OFFSET 5.242668 0.322602 -0.840811
    CHANNELS 3 Zrotation Xrotation Yrotation
    JOINT KneeRight
    {
      OFFSET -5.442621 -28.926806 4.795043
      CHANNELS 3 Zrotation Xrotation Yrotation
      JOINT AnkleRight
      {
        OFFSET -8.409286 -34.009101 8.578516
        CHANNELS 3 Zrotation Xrotation Yrotation
        JOINT FootRight
        {
          OFFSET 1.991355 -4.539080 -9.011146
          CHANNELS 3 Zrotation Xrotation Yrotation
          End Site
          {
            OFFSET 0 0 0
          }
        }
      }
    }
  }
}
MOTION
Frames: 11
Frame Time: 0.033333
28.665404 59.028929 346.917166 9.304535 2.420723 0.086299 -0.574370 -0.401912 0.023196 0.568874 -0.862011 0.468511 8.317329 -9.144351 3.445242 0.000000 0.000000 0.000000 -9.655598 0.432256 -1.083310 90.706529 45.906279 -62.129954 12.059829 40.917256 9.618916 -9.417977 -20.862452 -11.094883 0.000000 0.000000 0.000000 0.000000 0.000000 0.000000 43.524053 -45.473888 20.336836 8.344240 60.288690 -27.869222 -14.649705 11.811360 -29.735021 -14.068336 1.871507 23.503239 0.000000 0.000000 0.000000 0.000000 0.000000 0.000000 19.195492 32.285947 -17.765805 -8.059446 -38.586385 14.418946 -53.867280 56.046002 57.224612 0.000000 0.000000 0.000000 49.775557 57.380458 -43.737591 0.395437 -11.573761 5.704382 -38.409294 -30.980509 -1.425177 0.000000 0.000000 0.000000
29.447168 59.236230 346.616368 10.623500 2.342943 0.740690 -0.672517 -0.373675 -0.608658 0.687865 -1.052927 0.556416 8.177268 -9.606251 3.736535 0.000000 0.000000 0.000000 -8.521405 -2.435450 -0.577752 96.863084 40.825751 -68.839357 15.844839 41.969646 6.496666 -20.768178 -15.052701 -24.008937 0.000000 0.000000 0.000000 0.000000 0.000000 0.000000 42.012355 -41.205318 18.261635 -9.945732 65.609331 -14.331858 -8.251204 8.795354 -30.034400 -13.733186 -1.935212 24.441956 0.000000 0.000000 0.000000 0.000000 0.000000 0.000000 16.676064 33.131428 -18.690498 -5.313654 -38.659321 15.864767 -53.939538 55.750271 56.677974 0.000000 0.000000 0.000000 63.210029 63.828859 -64.277289 0.850934 -6.409934 1.139448 -38.095415 -53.787149 -3.000896 0.000000 0.000000 0.000000
30.388797 59.605362 346.424930 12.127710 2.128007 1.318216 -0.824723 -0.348492 -1.145148 0.671865 -1.131168 0.628538 7.550141 -9.646867 3.793680 0.000000 0.000000 0.000000 -10.307393 -4.528174 -0.028466 101.016042 40.400889 -73.900250 47.263811 21.072298 26.802618 -47.936466 31.571071 -43.219177 0.000000 0.000000 0.000000 0.000000 0.000000 0.000000 40.133495 -36.924681 16.054649 -19.514670 77.255377 -9.345823 -1.549211 2.797381 -34.748490 -15.072274 -15.579300 27.362166 0.000000 0.000000 0.000000 0.000000 0.000000 0.000000 14.017604 34.353974 -19.677436 -2.836239 -39.396124 17.182048 -55.095718 55.394104 57.382279 0.000000 0.000000 0.000000 79.934512 68.142382 -89.588960 0.867706 -4.704783 -2.643106 -26.852197 -74.288821 4.760553 0.000000 0.000000 0.000000
31.013735 60.121080 346.235749 12.983619 1.804446 1.940120 -0.625613 -0.232809 -1.712441 0.567456 -1.088510 0.664525 7.641654 -9.540655 3.838497 0.000000 0.000000 0.000000 -12.667822 -6.395246 0.474095 103.680990 39.641880 -76.255907 49.970441 11.125154 35.389442 -44.488121 40.285711 -38.441055 0.000000 0.000000 0.000000 0.000000 0.000000 0.000000 40.372891 -33.808381 15.131163 -36.096047 78.347085 3.694576 -0.743588 1.938810 -34.860624 -21.813367 -17.846335 25.164455 0.000000 0.000000 0.000000 0.000000 0.000000 0.000000 12.517526 34.879476 -20.357022 -1.571491 -39.499096 17.685236 -56.115561 55.050646 58.102745 0.000000 0.000000 0.000000 101.756747 68.371580 -118.694158 0.389815 -5.358448 -6.377203 133.968538 -78.279413 158.990770 0.000000 0.000000 0.000000
31.018575 60.782602 346.045685 12.929203 1.450466 2.543687 -0.202884 -0.071873 -2.273061 0.495364 -0.899501 0.651795 8.796187 -9.573482 4.015083 0.000000 0.000000 0.000000 -15.077937 -8.543181 0.986049 106.561664 37.899876 -77.667494 45.431351 6.028807 35.993959 -37.000600 40.249189 -36.787140 0.000000 0.000000 0.000000 0.000000 0.000000 0.000000 41.939619 -32.112775 15.122111 -41.952280 78.454761 7.153692 -8.126263 4.779590 -35.506449 -13.653371 -13.815885 27.126591 0.000000 0.000000 0.000000 0.000000 0.000000 0.000000 12.659145 33.944808 -20.368328 -2.074731 -38.060833 16.991833 -56.407022 54.727710 58.031379 0.000000 0.000000 0.000000 115.136705 66.963396 -137.113946 1.136529 -7.120889 -6.598985 148.973258 -59.353714 166.326416 0.000000 0.000000 0.000000
30.325523 61.514881 346.050025 11.877291 0.938839 2.914897 0.459604 0.117470 -2.607866 0.407370 -0.617142 0.590485 10.816677 -9.709196 4.320256 0.000000 0.000000 0.000000 -14.535428 -9.241595 1.176603 107.517390 38.021717 -79.219924 35.123505 -1.770338 35.672676 -18.790783 35.474426 -33.720218 0.000000 0.000000 0.000000 0.000000 0.000000 0.000000 46.285539 -31.741628 16.474377 -84.168295 79.761576 43.599380 1.588800 1.799431 -35.396513 -21.351792 -16.117512 26.361109 0.000000 0.000000 0.000000 0.000000 0.000000 0.000000 14.548040 32.224839 -19.867619 -3.960252 -35.890113 15.565829 -56.718877 54.398180 57.840686 0.000000 0.000000 0.000000 126.333030 63.854968 -151.057186 2.407333 -11.428183 -4.582680 156.199548 -46.665300 166.771370 0.000000 0.000000 0.000000
29.157131 62.175215 346.329272 10.269823 0.121764 2.767833 1.077574 0.296041 -2.426943 0.473170 -0.398872 0.525028 12.770726 -8.788071 4.128131 0.000000 0.000000 0.000000 -14.292608 -9.491590 1.432942 103.848644 39.432596 -76.260371 16.102832 -0.445363 24.490773 -2.473946 19.809692 -22.061429 0.000000 0.000000 0.000000 0.000000 0.000000 0.000000 48.192577 -28.961664 15.417677 -100.161058 79.449491 56.329701 3.362382 -1.184040 -34.831866 -20.653975 -15.176361 27.043945 0.000000 0.000000 0.000000 0.000000 0.000000 0.000000 16.346234 30.555775 -18.553755 -4.837153 -32.082736 14.588338 -56.207551 53.680041 55.851375 0.000000 0.000000 0.000000 131.416400 60.914984 -154.196911 1.276179 -15.202733 -6.181149 159.196301 -41.544168 166.309930 0.000000 0.000000 0.000000
27.951146 62.911588 346.742539 8.859382 -0.722664 2.527681 1.311521 0.328104 -2.165196 0.502988 -0.235233 0.457129 15.038549 -7.460768 3.755023 0.000000 0.000000 0.000000 -15.299232 -10.357944 1.913097 98.969518 41.805552 -72.060078 3.456885 3.297872 17.426371 11.040928 12.571979 -13.557362 0.000000 0.000000 0.000000 0.000000 0.000000 0.000000 49.314411 -25.043125 13.322192 -108.346213 80.093219 62.130905 3.045794 -5.904919 -33.987709 -23.494007 -11.707512 26.725938 0.000000 0.000000 0.000000 0.000000 0.000000 0.000000 17.191639 28.765437 -16.890262 -4.626691 -27.125039 13.861416 -55.293238 52.558803 52.867546 0.000000 0.000000 0.000000 134.021896 59.877121 -154.844941 1.807261 -18.325806 -3.700827 157.526882 -48.330331 168.473144 0.000000 0.000000 0.000000
26.839621 63.542441 347.229197 7.571522 -1.558004 2.931822 1.414380 0.357908 -2.569140 0.411066 -0.125940 0.388802 17.572337 -5.887273 3.219777 0.000000 0.000000 0.000000 -17.049971 -11.353117 2.407239 86.403262 45.783142 -61.374581 -0.518027 10.392399 13.821062 14.158069 7.623861 -9.130425 0.000000 0.000000 0.000000 0.000000 0.000000 0.000000 49.289342 -22.270961 11.392928 -103.271700 84.328381 58.549916 -5.914649 -8.819041 -36.098877 -18.125718 -4.491773 29.072494 0.000000 0.000000 0.000000 0.000000 0.000000 0.000000 17.740766 26.995904 -15.975243 -3.478338 -22.013594 13.408722 -54.585693 51.244298 49.731063 0.000000 0.000000 0.000000 133.170925 60.172359 -151.173018 2.693073 -22.854784 0.564169 149.389986 -68.030389 168.714618 0.000000 0.000000 0.000000
25.881878 64.075589 347.871939 6.861648 -2.406487 3.223088 1.141718 0.338507 -2.847821 0.390940 -0.136376 0.345673 18.691530 -4.256244 2.517709 0.000000 0.000000 0.000000 -19.546841 -12.119674 2.896294 66.248392 47.948953 -44.067312 2.291064 18.316204 12.395789 13.914478 2.227299 -6.664542 0.000000 0.000000 0.000000 0.000000 0.000000 0.000000 48.195529 -17.284111 8.279083 -56.317806 87.798912 13.395003 -13.388263 -13.442028 -38.655104 -17.171309 1.212107 30.117448 0.000000 0.000000 0.000000 0.000000 0.000000 0.000000 17.087923 25.866188 -15.147616 -1.268613 -17.312759 13.367042 -54.447976 49.858208 46.770179 0.000000 0.000000 0.000000 127.682939 63.053463 -142.796904 4.778510 -25.071892 6.730183 -3.255173 -83.513035 25.795217 0.000000 0.000000 0.000000
24.739766 64.575905 348.615288 5.872768 -3.182709 3.915394 1.095878 0.238144 -3.549422 0.388543 -0.193718 0.304948 20.408953 -2.121788 1.543656 0.000000 0.000000 0.000000 -21.348229 -12.769773 3.379733 42.754134 44.501821 -24.715976 5.286471 27.898731 11.777694 9.296026 -2.583924 -7.463790 0.000000 0.000000 0.000000 0.000000 0.000000 0.000000 49.076534 -10.957597 5.108199 -23.784052 87.383617 -20.613687 -13.728186 -19.574077 -39.118202 -19.889647 7.389938 31.664992 0.000000 0.000000 0.000000 0.000000 0.000000 0.000000 17.560919 24.943120 -15.171118 0.493633 -13.250115 13.261665 -61.222958 47.135942 47.560364 0.000000 0.000000 0.000000 117.119067 65.743365 -128.276209 7.548837 -27.344164 13.708151 -28.021039 -60.700994 5.449137 0.000000 0.000000 0.000000
